<svg width="32" height="32" viewBox="0 0 32 32" fill="none" xmlns="http://www.w3.org/2000/svg">
  <!-- Flame icon with gradient -->
  <defs>
    <linearGradient id="flameGradient" x1="0%" y1="0%" x2="100%" y2="100%">
      <stop offset="0%" style="stop-color:#8b5cf6;stop-opacity:1" />
      <stop offset="50%" style="stop-color:#ec4899;stop-opacity:1" />
      <stop offset="100%" style="stop-color:#f59e0b;stop-opacity:1" />
    </linearGradient>
  </defs>
  
  <!-- Main flame shape -->
  <path d="M16 2C16 2 12 6 12 12C12 16 14 18 16 18C18 18 20 16 20 12C20 6 16 2 16 2Z" fill="url(#flameGradient)"/>
  
  <!-- Inner flame -->
  <path d="M16 6C16 6 14 8 14 11C14 13 15 14 16 14C17 14 18 13 18 11C18 8 16 6 16 6Z" fill="#fbbf24"/>
  
  <!-- Flame tip -->
  <circle cx="16" cy="8" r="1.5" fill="#ffffff"/>
  
  <!-- Base glow effect -->
  <ellipse cx="16" cy="20" rx="8" ry="2" fill="url(#flameGradient)" opacity="0.3"/>
</svg>